<svg xmlns="http://www.w3.org/2000/svg">
  <symbol viewBox="0 0 18 18" id="icon-search">
    <path
      d="M17.6932 16.0568L14.2159 12.5795C15.2386 11.25 15.75 9.61364 15.75 7.875C15.75 3.47727 12.2727 0 7.875 0C3.47727 0 0 3.47727 0 7.875C0 12.2727 3.47727 15.75 7.875 15.75C9.61364 15.75 11.25 15.1364 12.5795 14.2159L16.0568 17.6932C16.2614 17.8977 16.4659 18 16.875 18C17.4886 18 18 17.4886 18 16.875C18 16.6705 17.8977 16.3636 17.6932 16.0568ZM2.25 7.875C2.25 4.80682 4.80682 2.25 7.875 2.25C10.9432 2.25 13.5 4.80682 13.5 7.875C13.5 10.9432 10.9432 13.5 7.875 13.5C4.80682 13.5 2.25 10.9432 2.25 7.875Z" />
  </symbol>
  <symbol viewBox="0 0 21 18" id="icon-cart">
    <path
      d="M20.1884 6.85716H16.6377L13.1884 0.380944C12.9855 -8.61287e-06 12.5797 -0.0952351 12.1739 0.0952412C11.7681 0.285717 11.6667 0.66667 11.8696 1.04762L15.0145 6.85716H5.7826L8.92753 1.04762C9.13043 0.66667 8.92754 0.285717 8.6232 0.0952412C8.2174 -0.0952351 7.8116 0.0952295 7.6087 0.380944L4.1594 6.85716H0.811583C0.405785 6.85716 0 7.14286 0 7.61905C0 8 0.304336 8.38094 0.811583 8.38094H1.01449L1.92753 11.2381C1.72463 11.3333 1.62317 11.5238 1.62317 11.8095C1.62317 12.1905 1.92753 12.4762 2.33332 12.4762L4.05797 18H16.942L18.6667 12.4762C19.0725 12.4762 19.3768 12.1905 19.3768 11.8095C19.3768 11.619 19.2754 11.3333 19.0725 11.2381L19.9855 8.38094H20.1884C20.5942 8.38094 21 8.09524 21 7.61905C21 7.14286 20.5942 6.85716 20.1884 6.85716ZM15.6232 16.4762H5.07247L3.85506 12.381H16.942L15.6232 16.4762ZM17.2464 10.9524H3.34782L2.53623 8.28573H18.058L17.2464 10.9524Z" />
  </symbol>
  <symbol viewBox="0 0 40 62" id="icon-interior">
    <g>
      <path
        d="M15.162 37.7167C14.8627 38.7119 14.9625 39.9061 15.162 41.2994C15.6607 43.8869 16.8577 47.2705 17.556 50.9527H22.6433C23.3415 47.3701 24.5385 43.9864 25.137 41.2994C25.4363 39.9061 25.4363 38.6124 25.137 37.7167C24.8378 36.821 24.2393 36.1244 23.142 35.4277H17.157C15.96 36.1244 15.3615 36.821 15.162 37.7167Z" />
      <path
        d="M26.9327 57.6211H13.1671C11.8703 57.6211 10.8728 58.6163 10.8728 59.8105V61.9999H13.1671H26.9327H29.2269V59.8105C29.2269 58.6163 28.2294 57.6211 26.9327 57.6211Z" />
      <path
        d="M34.015 2.18943H22.3441C22.3441 0.995194 21.3466 0 20.0499 0C18.7531 0 17.7556 0.995194 17.7556 2.18943H6.08478L0 27.5668C0.798005 27.0693 1.59602 26.5717 2.59352 26.5717C3.99003 26.5717 4.78803 27.3678 5.48629 27.9649C6.18454 28.562 6.68329 28.7611 6.88279 28.7611C7.18204 28.7611 7.68079 28.4625 8.37905 27.9649C9.0773 27.4673 9.97505 26.5717 11.2718 26.5717C12.5686 26.5717 13.4663 27.3678 14.1646 27.9649C14.8628 28.4625 15.3616 28.7611 15.6608 28.7611C15.7606 28.7611 15.9601 28.6616 16.2593 28.562C16.4588 28.4625 16.7581 28.164 17.1571 27.9649C17.6559 27.5668 18.2544 26.9697 19.1521 26.7707C19.4514 26.6712 19.7506 26.6712 20.0499 26.6712C21.3466 26.6712 22.2444 27.4673 22.9426 28.0644C23.6409 28.562 24.1397 28.8606 24.4389 28.8606C24.7382 28.8606 25.2369 28.562 25.8354 28.0644C26.5337 27.4673 27.4314 26.6712 28.7282 26.6712C30.1247 26.6712 30.9227 27.4673 31.621 28.0644C31.9202 28.363 32.2194 28.562 32.5187 28.6616C32.7182 28.7611 32.9177 28.8606 33.1172 28.8606C33.4165 28.8606 33.9152 28.562 34.5137 27.9649C35.212 27.3678 36.1097 26.5717 37.4065 26.5717C38.404 26.5717 39.202 27.0693 40 27.5668L34.015 2.18943Z" />
      <path
        d="M23.4415 53.1426H16.5587C15.8604 53.1426 15.4614 53.6402 15.4614 54.2373C15.4614 54.8344 15.9602 55.332 16.5587 55.332H23.4415C24.1397 55.332 24.5387 54.8344 24.5387 54.2373C24.6385 53.6402 24.1397 53.1426 23.4415 53.1426Z" />
      <path
        d="M20.0499 28.7598C19.9501 28.7598 19.7506 28.8593 19.4514 28.9588C19.2519 29.0583 19.0524 29.2574 18.8529 29.3569V33.0391H21.1471V29.4564C20.6484 29.0583 20.2494 28.7598 20.0499 28.7598Z" />
    </g>
  </symbol>
  <symbol viewBox="0 0 60 60" id="icon-toys">
    <path
      d="M0 43.9933L27.4 60V36.5436L0 20.4362V43.9933ZM51.3 12.4832V15C51.3 16.8121 47.8 18.3221 43.6 18.3221C39.3 18.3221 35.9 16.8121 35.9 15V10.8725C36.2 12.5839 39.5 13.9933 43.6 13.9933C47.9 13.9933 51.3 12.4832 51.3 10.6711C51.3 8.85907 47.8 7.349 43.6 7.349C43.3 7.349 42.9 7.349 42.6 7.349L37.6 4.42954V7.55034C37.6 9.36242 34.1 10.8725 29.9 10.8725C27.2 10.8725 24.9 10.2685 23.5 9.36242C23.3 9.16108 23.1 8.95973 22.8 8.75839C22.4 8.3557 22.2 7.95302 22.2 7.55034V4.5302L17.4 7.349C17.1 7.349 16.7 7.349 16.3 7.349C12 7.349 8.60001 8.85907 8.60001 10.6711C8.60001 12.4832 12.1 13.9933 16.3 13.9933C20.4 13.9933 23.7 12.5839 24 10.8725V15C24 16.8121 20.5 18.3221 16.3 18.3221C12 18.3221 8.60001 16.8121 8.60001 15V12.5839L2.60001 16.1074L30.1 32.2148L57.5 16.2081L51.3 12.4832ZM37.7 22.7517C37.7 24.5638 34.2 26.0738 30 26.0738C25.7 26.0738 22.3 24.5638 22.3 22.7517V18.6242C22.6 20.3356 25.9 21.745 30 21.745C34.1 21.745 37.4 20.3356 37.7 18.6242V22.7517ZM32.6 36.745V60L60 43.9933V20.7383L32.6 36.745ZM29.9 6.6443C34.2 6.6443 37.6 5.13423 37.6 3.32215C37.6 1.51007 34.1 0 29.9 0C25.6 0 22.2 1.51007 22.2 3.32215C22.2 5.13423 25.6 6.6443 29.9 6.6443Z" />
  </symbol>
  <symbol viewBox="0 0 33 38" id="icon-about-us-1">
    <path
      d="M16.5 38C25.575 38 33 30.6452 33 21.6559C23.925 21.6559 16.5 28.9086 16.5 38ZM4.74375 16.6505C4.74375 19.2043 6.80625 21.1452 9.28125 21.1452C10.2094 21.1452 11.1375 20.8387 11.8594 20.328V20.6344C11.8594 23.1882 13.9219 25.129 16.3969 25.129C18.975 25.129 20.9344 23.086 20.9344 20.6344V20.328C21.6562 20.8387 22.5844 21.1452 23.5125 21.1452C26.0906 21.1452 28.05 19.1021 28.05 16.6505C28.05 14.8118 27.0188 13.2796 25.4719 12.5645C27.0188 11.8495 28.05 10.3172 28.05 8.47849C28.05 5.92473 25.9875 3.98387 23.5125 3.98387C22.5844 3.98387 21.6562 4.29032 20.9344 4.80107V4.49462C20.9344 1.94086 18.8719 0 16.3969 0C13.8187 0 11.8594 2.04301 11.8594 4.49462V4.80107C11.1375 4.29032 10.2094 3.98387 9.28125 3.98387C6.70312 3.98387 4.74375 6.02688 4.74375 8.47849C4.74375 10.3172 5.775 11.8495 7.32188 12.5645C5.87813 13.2796 4.74375 14.8118 4.74375 16.6505ZM16.5 7.96774C19.0781 7.96774 21.0375 10.0108 21.0375 12.4624C21.0375 15.0161 18.975 16.957 16.5 16.957C13.9219 16.957 11.9625 14.914 11.9625 12.4624C11.9625 10.0108 13.9219 7.96774 16.5 7.96774ZM0 21.6559C0 30.6452 7.425 38 16.5 38C16.5 28.9086 9.075 21.6559 0 21.6559Z"
      fill="#63D1BB" />
  </symbol>
  <symbol viewBox="0 0 47 27" id="icon-about-us-2">
    <path
      d="M43.0665 0H3.93347C1.71459 0 0 1.68132 0 3.85714V23.1429C0 25.3187 1.71459 27 3.93347 27H43.0665C45.2854 27 47 25.3187 47 23.1429V3.85714C47 1.78022 45.1845 0 43.0665 0ZM3.02575 24.7253V2.76923H43.5708V24.7253H3.02575Z"
      fill="#63D1BB" />
    <path
      d="M6.95925 20.8683H39.6374V6.62659H6.95925V20.8683ZM23.5 8.50571C26.4249 8.50571 28.8455 10.8793 28.8455 13.7475C28.8455 16.6156 26.4249 18.9892 23.5 18.9892C20.5751 18.9892 18.1545 16.6156 18.1545 13.7475C18.1545 10.7804 20.5751 8.50571 23.5 8.50571Z"
      fill="#63D1BB" />
  </symbol>
  <symbol viewBox="0 0 34 27" id="icon-about-us-3">
    <path
      d="M34 8.44964C34 3.78777 29.9818 0 25.0364 0C21.5333 0 18.5455 1.94245 17 4.66187C15.5576 1.94245 12.4667 0 8.96364 0C4.01818 0 0 3.78777 0 8.44964C0 17.2878 15.1455 27 17 27C18.9576 27 34 17.3849 34 8.44964Z"
      fill="#63D1BB" />
  </symbol>
  <symbol viewBox="0 0 35 34" id="icon-about-us-4">
    <path
      d="M0.305558 13.9528C-0.101853 16.0303 -0.101853 18.1079 0.305558 20.1854L4.48152 17.0196L0.305558 13.9528Z"
      fill="#63D1BB" />
    <path d="M24.852 1.586C19.9631 -0.590493 14.2594 -0.590493 9.26857 1.98172L16.9075 7.52187L24.852 1.586Z"
      fill="#63D1BB" />
    <path d="M34.528 13.062L29.6391 16.7225L34.6299 20.3829C35.1392 18.0086 35.1392 15.4364 34.528 13.062Z"
      fill="#63D1BB" />
    <path d="M9.37046 32.057C14.2594 34.5303 20.2687 34.7281 25.3613 32.1559L17.1113 26.1211L9.37046 32.057Z"
      fill="#63D1BB" />
    <path
      d="M8.04639 14.2488L1.73152 9.698C1.42596 10.3905 1.1204 11.083 0.916698 11.7756L6.31489 15.7328L8.04639 14.2488Z"
      fill="#63D1BB" />
    <path
      d="M18.9446 24.8349L27.3983 30.9686C27.7039 30.7707 28.0095 30.5729 28.2132 30.375C28.5187 30.1772 28.8243 29.8804 29.1298 29.5836L20.6761 23.4498L18.9446 24.8349Z"
      fill="#63D1BB" />
    <path
      d="M11.6112 11.5781L4.07412 6.13684C3.56486 6.6315 3.15745 7.22509 2.75003 7.81867L9.77787 12.9631L11.6112 11.5781Z"
      fill="#63D1BB" />
    <path
      d="M22.5094 22.1635L30.7595 28.1983C31.2688 27.7036 31.6762 27.11 32.0836 26.5165L24.2409 20.7784L22.5094 22.1635Z"
      fill="#63D1BB" />
    <path
      d="M15.176 8.90696L7.33339 3.16895C7.12969 3.26788 6.92598 3.46574 6.72228 3.56467C6.31487 3.86146 5.90746 4.15826 5.6019 4.55398L13.4446 10.1931L15.176 8.90696Z"
      fill="#63D1BB" />
    <path
      d="M26.0743 19.3936L33.204 24.538C33.5095 23.8455 33.8151 23.2519 34.1206 22.5594L27.9076 18.0085L26.0743 19.3936Z"
      fill="#63D1BB" />
    <path
      d="M26.8891 2.67419L0.916698 22.3615C1.1204 23.054 1.42596 23.7466 1.73152 24.4391L28.7225 3.9603C28.2132 3.46564 27.6021 3.06992 26.8891 2.67419Z"
      fill="#63D1BB" />
    <path
      d="M31.2688 6.53234C30.9632 6.13661 30.6576 5.74089 30.3521 5.44409L2.85186 26.2197C3.05557 26.7143 3.36113 27.11 3.66669 27.4068C3.76854 27.6047 3.97224 27.8026 4.0741 27.9015L31.778 7.12592C31.5743 6.92806 31.4725 6.7302 31.2688 6.53234Z"
      fill="#63D1BB" />
    <path
      d="M32.8984 8.90674L5.70373 29.4844C6.21299 29.9791 6.82411 30.4738 7.43522 30.8695L33.9169 10.8854C33.6114 10.1928 33.3058 9.50033 32.8984 8.90674Z"
      fill="#63D1BB" />
  </symbol>
  <symbol viewBox="0 0 55 23" id="icon-about-us-5">
    <path
      d="M40.9467 5.75002C37.307 4.75864 33.0607 4.06466 28.41 4.06466C25.478 4.06466 22.8493 4.26294 20.625 4.65949L13.75 0H0.10114L5.9651 6.14656H14.4577C9.80697 7.73277 7.58272 9.61639 7.58272 9.61639V13.3836C7.58272 13.3836 9.90811 15.2672 14.5588 16.8534H5.86396L0 23H13.6489L20.5239 18.3405C22.8492 18.7371 25.3768 18.9354 28.3088 18.9354C32.8584 18.9354 37.1048 18.2414 40.8456 17.25C39.6324 15.4655 38.9246 13.5819 38.9246 11.4009C39.0257 9.4181 39.8345 7.5345 40.9467 5.75002Z"
      fill="#63D1BB" />
    <path
      d="M44.4853 6.74121C43.1709 8.32742 42.4632 9.91361 42.4632 11.4998C42.4632 13.086 43.1709 14.6722 44.4853 16.2585C50.9559 14.0774 55 11.4998 55 11.4998C55 11.4998 50.9559 8.92224 44.4853 6.74121Z"
      fill="#63D1BB" />
  </symbol>
  <symbol viewBox="0 0 33 32" id="icon-about-us-6">
    <path
      d="M3.02752 32H15.6422V18.2716H3.02752V32ZM31.3853 8.69136H24.0183C24.5229 8.39506 25.0275 8.19753 25.4312 7.90123C27.0459 6.81481 27.8532 5.33333 27.8532 3.95062C27.8532 2.76543 27.2477 1.77777 26.4404 1.08641C25.633 0.395053 24.5229 0 23.4128 0C22.2018 0 20.9908 0.395053 20.0826 1.08641C18.5688 2.07406 17.4587 3.55555 16.6514 5.1358C16.6514 5.23456 16.5505 5.33333 16.5505 5.33333C16.2477 4.74073 15.945 4.14814 15.5413 3.55555C14.8349 2.56789 14.0275 1.679 13.0183 1.08641C12.0092 0.493818 10.8991 0 9.68807 0C8.47706 0 7.36697 0.49383 6.45871 1.28395C5.65137 2.07408 5.04587 3.16049 5.04587 4.34567C5.04587 5.03703 5.2477 5.82715 5.65137 6.51851C6.25687 7.4074 7.06422 8.09877 8.27523 8.69136H1.61467C0.706413 8.69136 0 9.38271 0 10.2716V16.0988H15.5413V8.69136H17.4587V16.0988H33V10.2716C33 9.38271 32.2936 8.69136 31.3853 8.69136ZM8.88073 6.41975C8.27522 6.02469 7.87155 5.62962 7.66972 5.33333C7.46788 4.93826 7.36696 4.64197 7.36696 4.34567C7.36696 3.85184 7.56881 3.35802 8.0734 2.86419C8.47707 2.46913 9.08256 2.17284 9.68807 2.17284C10.3945 2.17284 11.1009 2.37036 11.7064 2.86419C12.7156 3.55555 13.7248 4.64196 14.3303 6.02468C14.633 6.71604 14.9358 7.4074 15.1376 8.09876C12.0092 7.80246 9.99082 7.11111 8.88073 6.41975ZM19.4771 4.8395C20.0826 4.04938 20.6881 3.35802 21.3945 2.96296C22.1009 2.46914 22.8073 2.27161 23.4128 2.27161C24.0183 2.27161 24.5229 2.46914 24.9266 2.76543C25.3303 3.06173 25.5321 3.45679 25.5321 3.95062C25.5321 4.44444 25.2294 5.23456 24.0183 6.02468C22.9083 6.8148 20.8899 7.7037 17.8624 8.29629C18.1651 7.1111 18.7706 5.82715 19.4771 4.8395ZM17.4587 32H30.0734V18.2716H17.4587V32Z"
      fill="#63D1BB" />
  </symbol>
  <symbol viewBox="0 0 50 26" id="icon-arrow-left">
    <path d="M50 11H7.7L15.8 2.8L13 0L0 13L13 26L15.8 23.2L7.7 15H50V11Z" fill="black" />
  </symbol>
  <symbol viewBox="0 0 50 26" id="icon-arrow-right">
    <path d="M0 11H42.3L34.2 2.8L37 0L50 13L37 26L34.2 23.2L42.3 15H0V11Z" fill="black" />
  </symbol>
  <symbol viewBox="0 0 102 34" id="icon-logo-footer">
    <path d="M19.2204 21.3813C19.1204 18.6962 18.7204 16.1105 18.7204 13.4255C18.7204 11.2376 19.1204 9.04976 18.3204 6.96135C18.3204 6.76246 18.4204 6.46411 18.4204 6.26522C18.6204 5.27074 15.1204 5.76798 14.6204 6.76246C14.3204 7.0608 14.1204 7.35914 14.2204 7.75694C14.2204 7.85638 14.3204 7.95583 14.3204 8.05528C13.6204 11.2376 12.7204 14.3205 11.7204 17.4034C11.3204 18.5967 10.8204 19.6907 10.4204 20.884C9.82041 19.7901 9.22041 18.6962 8.82041 17.5028C7.42041 14.1216 6.22041 10.6409 4.52041 7.35914C4.72041 5.86743 1.32041 5.96688 0.620408 7.35914C-0.179592 9.04976 -0.0795918 10.7404 0.220408 12.5304C0.520408 14.5194 0.620408 16.5083 0.620408 18.5967C0.620408 22.5746 1.02041 26.4531 1.02041 30.431C0.620408 30.8288 0.520408 31.326 0.920408 31.8233C1.12041 32.0222 1.32041 32.2211 1.52041 32.3205C2.52041 33.0167 5.12041 32.42 5.12041 31.0277C5.12041 26.9503 4.82041 22.873 4.72041 18.6962C4.72041 18.2984 4.72041 17.9006 4.72041 17.5028C4.82041 17.6023 4.82041 17.8012 4.92041 17.9006C5.52041 19.4918 6.22041 21.0829 7.12041 22.5746C8.02041 24.0664 8.42041 25.6575 8.92041 27.2487C8.72041 27.4476 8.62041 27.7459 8.72041 27.9448C8.72041 28.1437 8.82041 28.2432 9.02041 28.3426C9.62041 28.8399 10.8204 28.641 11.5204 28.3426C11.8204 28.2432 12.1204 28.0443 12.3204 27.9448C12.6204 27.7459 13.2204 27.2487 13.0204 26.7514C13.0204 26.652 12.9204 26.5526 12.9204 26.4531C13.4204 25.1603 13.6204 23.8675 13.9204 22.5746C14.2204 21.1824 14.7204 19.7901 15.2204 18.4973C15.3204 19.094 15.3204 19.6907 15.4204 20.3868C15.6204 22.9724 15.4204 25.4586 15.4204 27.9448C15.4204 28.7404 15.5204 29.536 15.6204 30.431C15.7204 30.7294 16.0204 32.2211 15.9204 32.3205C15.1204 32.8178 15.3204 33.4144 16.1204 33.6133C17.0204 33.8122 18.2204 33.5139 18.9204 32.9172C20.1204 31.8233 19.5204 30.1327 19.3204 28.7404C18.8204 26.3537 19.3204 23.768 19.2204 21.3813Z" fill="black"/>
    <path d="M27.6201 22.0776C27.5201 20.0887 26.8201 18.1992 26.8201 16.2102C26.8201 13.9229 27.0201 11.6356 26.6201 9.34833C26.5201 8.65219 22.5201 9.44778 22.7201 10.3428C23.0201 12.4312 22.9201 14.5196 22.9201 16.7075C22.9201 18.6964 23.4201 20.5859 23.6201 22.5749C23.9201 24.6633 23.5201 26.7517 23.7201 28.7406C23.8201 29.7351 24.5201 31.4257 23.8201 32.3208C23.4201 32.818 25.3201 32.6191 25.4201 32.6191C26.2201 32.5196 27.2201 32.2213 27.7201 31.6246C28.4201 30.829 27.9201 29.2379 27.8201 28.2434C27.5201 26.2544 27.7201 24.0666 27.6201 22.0776Z" fill="black"/>
    <path d="M43.9205 18.7956C41.8205 16.0111 38.0205 18.0001 35.3205 17.3039C33.9205 16.9061 33.9205 15.0166 33.9205 13.9227C33.9205 12.5304 33.8205 11.2376 33.6205 9.84534C33.5205 8.75142 33.6205 7.75694 34.3205 6.96136C34.4205 6.86191 35.2205 6.66302 35.1205 6.66302C35.5205 6.56357 35.8205 6.56357 36.2205 6.56357C37.7205 6.46412 40.8205 6.76247 40.2205 9.04976C39.9205 10.0442 43.8205 9.44755 44.1205 8.45308C45.3205 3.87848 36.8205 4.77351 34.4205 5.3702C32.2205 5.96688 29.8205 7.16026 29.6205 9.7459C29.5205 10.9393 29.9205 12.1326 29.9205 13.326C30.0205 14.7183 29.7205 16.1106 30.2205 17.4034C31.3205 20.3868 35.7205 18.9945 38.0205 19.094C41.8205 19.3923 40.7205 24.5636 40.7205 26.9504C40.7205 28.2432 41.9205 30.3316 40.9205 31.4255C40.3205 32.1216 38.9205 32.1216 38.1205 32.2211C37.3205 32.3205 35.9205 32.5194 35.4205 31.7238C34.4205 30.3316 35.5205 27.9448 35.3205 26.3537C35.2205 25.4586 31.2205 26.2542 31.4205 27.3481C31.7205 29.9338 30.0205 33.4145 33.8205 33.9117C36.2205 34.21 39.0205 33.7128 41.3205 33.0167C42.5205 32.6189 43.6205 32.1216 44.5205 31.2266C45.5205 30.3316 45.2205 28.9393 44.9205 27.7459C44.4205 24.6631 45.8205 21.2818 43.9205 18.7956Z" fill="black"/>
    <path d="M61.3201 18.5966C61.2201 14.8176 60.6201 11.1381 60.6201 7.35905C60.6201 5.37009 56.6201 6.06623 56.6201 7.65739C56.6201 11.2375 57.1201 14.8176 57.3201 18.3977C57.3201 18.4972 57.3201 18.4972 57.3201 18.5966C55.4201 18.5966 53.4201 18.7955 51.4201 18.7955C51.6201 14.2209 50.8201 9.64634 51.0201 4.9723C51.0201 4.37561 47.1201 4.87285 47.1201 5.96678C46.9201 10.4419 47.7201 14.8176 47.6201 19.2928C47.5201 21.3812 47.4201 23.569 47.3201 25.6574C47.3201 26.7514 47.5201 27.8453 47.6201 28.9392C47.7201 29.9337 48.1201 31.2265 47.8201 32.221C47.6201 33.0166 51.4201 32.5193 51.7201 31.5248C52.2201 29.7348 51.5201 27.5469 51.3201 25.7569C51.1201 24.0663 51.3201 22.2762 51.4201 20.5856C53.4201 20.4861 55.5201 20.2873 57.5201 20.5856C57.6201 21.9779 57.7201 23.3701 57.8201 24.663C57.9201 25.8563 58.0201 26.9502 58.0201 28.1436C58.0201 29.1381 58.1201 30.6298 57.8201 31.6243C57.0201 33.7127 60.9201 33.5138 61.5201 32.0221C62.2201 30.1326 62.0201 27.8453 61.9201 25.8563C61.7201 23.3701 61.3201 20.9834 61.3201 18.5966Z" fill="black"/>
    <path d="M78.22 22.9729C77.32 20.1884 75.82 17.8016 74.62 15.216C75.62 13.3265 76.62 11.3375 77.52 9.34855C78.32 7.55849 78.92 5.56954 80.62 4.27672C81.22 3.87892 81.22 3.38169 80.32 3.28224C79.42 3.18279 78.22 3.48113 77.52 3.97837C76.12 5.27119 75.12 6.66346 74.42 8.35407C73.52 10.4425 72.52 12.4314 71.52 14.4204C71.42 14.5198 71.42 14.7187 71.32 14.8182C70.82 15.1165 70.52 15.6138 70.72 16.111C69.92 17.7022 69.12 19.1939 68.22 20.6856C67.92 15.216 67.22 9.64689 67.02 4.17727C67.02 2.88445 63.02 3.68003 63.12 5.17174C63.32 12.0336 64.32 18.7961 64.42 25.658C64.42 25.658 64.42 25.658 64.42 25.7574C64.12 26.0558 64.22 26.2547 64.52 26.3541C64.52 28.1442 64.42 29.8348 64.32 31.6248C63.82 32.321 64.82 32.7188 65.42 32.7188H65.52C66.22 32.7188 68.12 32.4204 68.22 31.3265C68.42 29.2381 68.52 27.1497 68.42 25.0613C70.02 23.3707 71.32 21.4812 72.52 19.4922C73.32 20.9839 74.02 22.4756 74.52 24.0668C75.42 26.7519 76.82 29.3375 77.62 32.0226C78.12 33.8127 82.12 32.7188 81.52 31.0282C80.52 28.2436 79.12 25.7574 78.22 22.9729Z" fill="black"/>
    <path d="M101.721 18.3983C101.521 17.6027 100.321 17.6027 99.4207 17.6027C99.4207 17.3043 99.4207 16.9066 99.4207 16.6082C99.3207 13.9231 99.2207 11.238 99.0207 8.6524C98.8207 6.1662 97.4207 5.37062 95.0207 5.47007C92.6207 5.56952 89.8207 5.96731 87.5207 6.86234C84.9207 7.85682 83.4207 9.74632 82.9207 12.5309C82.4207 15.5143 83.1207 18.6966 83.3207 21.68C83.5207 25.1607 83.4207 28.6414 83.4207 32.1221C83.4207 32.7187 87.3207 32.1221 87.3207 31.1276C87.3207 28.343 87.3207 25.5585 87.3207 22.8734C87.3207 22.0778 87.2207 21.2823 87.2207 20.4867C88.6207 19.89 90.9207 20.4867 92.3207 20.5861C93.4207 20.6856 94.5207 20.3872 95.5207 20.2878C95.5207 22.5751 95.6207 24.8624 95.7207 27.1497C95.7207 28.343 96.2207 30.6303 95.3207 31.6248C94.9207 32.1221 96.8207 31.9232 96.9207 31.9232C97.7207 31.8237 98.7207 31.5254 99.2207 30.9287C100.121 29.8348 99.7207 27.1497 99.6207 25.8569C99.5207 23.9673 99.5207 22.0778 99.5207 20.1883C100.621 19.9894 101.921 19.2933 101.721 18.3983ZM87.1207 18.2988C87.0207 17.1055 86.9207 15.8126 86.8207 14.6193C86.6207 12.332 86.9207 9.05019 89.1207 7.65792C89.7207 7.26013 90.8207 7.35958 91.5207 7.26013C92.5207 7.06123 93.5207 6.86234 94.3207 7.45902C95.5207 8.25461 95.2207 11.1386 95.2207 12.332C95.2207 14.3209 95.4207 16.3099 95.5207 18.2988C94.9207 18.3983 94.4207 18.3983 93.8207 18.3983C91.5207 18.1994 89.2207 17.8016 87.1207 18.2988Z" fill="black"/>
    <path d="M24.2204 6.663C24.7204 6.56355 25.2204 6.4641 25.7204 6.16576C25.8204 6.06631 25.9204 5.96686 25.9204 5.96686C26.4204 5.66852 26.9204 5.17128 26.6204 4.57459C26.1204 3.48067 26.2204 2.38675 26.2204 1.19337C26.2204 0.198895 25.2204 0 24.4204 0C23.7204 0.0994477 22.2204 0.596686 22.2204 1.49172C22.2204 2.48619 22.1204 3.48067 22.3204 4.47515C22.3204 4.57459 22.2204 4.67404 22.2204 4.87294C22.1204 5.07183 22.2204 5.27073 22.3204 5.46962V5.56907C22.3204 5.66852 22.3204 5.76797 22.3204 5.86742C22.4204 6.06631 22.5204 6.26521 22.7204 6.36465C23.3204 6.663 23.8204 6.663 24.2204 6.663Z" fill="black"/>
  </symbol>
  <symbol viewBox="0 0 29 22" id="icon-vkontakte">
    <g clip-path="url(#clip0_33027_13)">
    <path d="M1.74121 5.33876C1.74121 4.48373 2.25631 4.02268 3.28652 3.95562L7.25636 3.98077C7.52279 3.98077 7.70042 4.10651 7.78923 4.35799C8.19776 5.61538 8.65513 6.70094 9.16135 7.61465C9.66758 8.52835 10.3292 9.58038 11.1463 10.7707C11.2173 10.9216 11.3328 10.997 11.4926 10.997C11.617 10.997 11.7147 10.9384 11.7857 10.821L11.8656 10.5444L11.8923 6.19379C11.8923 5.89201 11.8168 5.69083 11.6658 5.59024C11.5148 5.48965 11.2351 5.4142 10.8266 5.36391C10.5068 5.31361 10.347 5.12919 10.347 4.81065C10.347 4.74359 10.3559 4.69329 10.3736 4.65976C10.7466 3.57002 11.8124 3.02515 13.5708 3.02515L15.0628 3C15.7378 3 16.2973 3.15927 16.7414 3.47781C17.1854 3.79635 17.4074 4.29931 17.4074 4.98669V10.6953C17.5318 10.7791 17.6472 10.821 17.7538 10.821C18.0202 10.821 18.2511 10.6701 18.4465 10.3683C20.4004 7.78649 21.4572 6.05966 21.6171 5.18787C21.6171 5.1711 21.6348 5.12919 21.6704 5.06213C21.7947 4.81065 21.999 4.5927 22.2832 4.40828C22.5673 4.22387 22.816 4.09813 23.0292 4.03107C23.1002 3.99753 23.1801 3.98077 23.269 3.98077H27.3987L27.6651 4.00592C28.0203 4.00592 28.2956 4.16519 28.491 4.48373C28.5621 4.58432 28.6109 4.69329 28.6376 4.81065C28.6642 4.92801 28.682 5.04536 28.6909 5.16272C28.6997 5.28008 28.7042 5.34714 28.7042 5.36391V5.53994C28.5798 6.22732 28.2646 6.9608 27.7583 7.74038C27.2521 8.51997 26.6082 9.36243 25.8267 10.2678C25.0452 11.1731 24.5567 11.7682 24.3613 12.0533C24.2015 12.2544 24.1215 12.4389 24.1215 12.6065C24.1215 12.7406 24.1926 12.8915 24.3347 13.0592L28.2246 17.6864C28.4377 17.9546 28.5443 18.248 28.5443 18.5666C28.5443 18.9522 28.3845 19.2707 28.0647 19.5222C27.745 19.7737 27.3631 19.9162 26.9191 19.9497L26.4661 19.9749H22.4164C22.3986 19.9749 22.3631 19.979 22.3098 19.9874C22.2565 19.9958 22.221 20 22.2032 20C21.8125 20 21.4483 19.8407 21.1108 19.5222C20.9865 19.3881 20.1517 18.3989 18.6064 16.5547C18.5176 16.4374 18.3932 16.3284 18.2334 16.2278C18.1623 16.4961 18.0691 16.8817 17.9536 17.3846C17.8382 17.8876 17.7538 18.248 17.7005 18.466L17.6206 18.8935C17.443 19.4803 17.07 19.8323 16.5016 19.9497L16.1286 19.9749H13.5175C12.0433 19.9749 10.5734 19.3378 9.10807 18.0636C7.64269 16.7894 6.32385 15.1423 5.15155 13.122C3.97924 11.1018 2.88687 8.75049 1.87443 6.06805C1.78562 5.8501 1.74121 5.607 1.74121 5.33876ZM17.7538 11.8521C17.3808 11.8521 17.0433 11.7557 16.7414 11.5629C16.4394 11.3701 16.2884 11.106 16.2884 10.7707V4.98669C16.2884 4.65138 16.1996 4.41248 16.022 4.26997C15.8444 4.12747 15.5335 4.05621 15.0895 4.05621L13.5708 4.10651C12.807 4.10651 12.2298 4.23225 11.839 4.48373C12.6205 4.8358 13.0113 5.40582 13.0113 6.19379V10.6198C12.9758 11.039 12.7982 11.3868 12.4784 11.6635C12.1587 11.9401 11.8035 12.0784 11.4127 12.0784C10.8798 12.0784 10.4713 11.8353 10.1871 11.3491C8.80167 9.37081 7.77147 7.4931 7.0965 5.71598L6.85671 5.06213L3.31316 5.03698C3.08225 5.03698 2.95348 5.04956 2.92684 5.0747C2.90019 5.09985 2.88687 5.1711 2.88687 5.28846C2.88687 5.43935 2.90463 5.59862 2.94016 5.76627L3.49967 7.17456C4.99169 10.8126 6.61248 13.6795 8.36206 15.7751C10.1116 17.8708 11.8301 18.9186 13.5175 18.9186H16.1818C16.2884 18.9186 16.3684 18.8893 16.4216 18.8306C16.4749 18.7719 16.5193 18.6588 16.5549 18.4911L16.6081 18.2396L17.1144 16.0266C17.2565 15.7249 17.3808 15.5237 17.4874 15.4231C17.6828 15.2387 17.9137 15.1465 18.1801 15.1465C18.6064 15.1465 19.0416 15.3895 19.4856 15.8757L21.7503 18.5917C21.8924 18.8097 22.0434 18.9186 22.2032 18.9186H26.5994C27.1322 18.9186 27.3987 18.7929 27.3987 18.5414C27.3987 18.4576 27.372 18.3738 27.3187 18.2899L23.4555 13.7382C23.1535 13.3861 23.0025 13.0089 23.0025 12.6065C23.0025 12.2041 23.1446 11.8185 23.4288 11.4497C23.6597 11.1144 24.1082 10.557 24.7743 9.77737C25.4404 8.99778 26.0221 8.26849 26.5194 7.5895C27.0168 6.9105 27.3454 6.29438 27.5052 5.74112L27.5852 5.4142C27.5674 5.38067 27.5585 5.32618 27.5585 5.25074C27.5585 5.1753 27.5496 5.11243 27.5319 5.06213H23.3489C23.0825 5.16272 22.8693 5.31361 22.7094 5.51479L22.5496 5.9926C22.1055 7.14941 20.9421 8.93491 19.0593 11.3491C18.6863 11.6844 18.2511 11.8521 17.7538 11.8521Z" fill="#231F20"/>
    </g>
    <defs>
    <clipPath id="clip0_33027_13">
    <rect width="28" height="22" fill="white" transform="translate(0.741211)"/>
    </clipPath>
    </defs>
  </symbol>
  <symbol viewBox="0 0 29 22" id="icon-youtube">
    <path d="M18.5921 10.7927L13.3558 7.30184C13.2572 7.23691 13.1428 7.19985 13.0249 7.19459C12.907 7.18934 12.7898 7.21608 12.6858 7.27198C12.5818 7.32789 12.4949 7.41087 12.4342 7.51215C12.3736 7.61343 12.3414 7.72924 12.3412 7.84729V14.8291C12.3413 14.9481 12.3739 15.0648 12.4354 15.1667C12.4969 15.2686 12.5851 15.3518 12.6903 15.4073C12.7937 15.4631 12.9103 15.4895 13.0276 15.4837C13.1449 15.478 13.2584 15.4402 13.3558 15.3746L18.5921 11.8837C18.6821 11.8239 18.756 11.7429 18.807 11.6477C18.8581 11.5526 18.8849 11.4462 18.8849 11.3382C18.8849 11.2302 18.8581 11.1239 18.807 11.0287C18.756 10.9335 18.6821 10.8525 18.5921 10.7927ZM13.6503 13.6073V9.06911L17.0539 11.3382L13.6503 13.6073ZM26.1303 5.04366C26.0354 4.67547 25.8543 4.33511 25.6021 4.05061C25.3498 3.76611 25.0336 3.54561 24.6794 3.40729C20.9594 1.9782 14.9921 2.00002 14.7412 2.00002C14.4903 2.00002 8.52303 1.9782 4.80303 3.40729C4.44885 3.54561 4.13261 3.76611 3.88036 4.05061C3.6281 4.33511 3.44705 4.67547 3.35212 5.04366C3.06848 6.11275 2.74121 8.07638 2.74121 11.3382C2.74121 14.6 3.06848 16.5637 3.35212 17.6327C3.44705 18.0009 3.6281 18.3413 3.88036 18.6258C4.13261 18.9103 4.44885 19.1308 4.80303 19.2691C8.52303 20.6982 14.4903 20.6764 14.7412 20.6764H14.8176C15.5703 20.6764 21.1339 20.6327 24.6794 19.2691C25.0336 19.1308 25.3498 18.9103 25.6021 18.6258C25.8543 18.3413 26.0354 18.0009 26.1303 17.6327C26.4139 16.5637 26.7412 14.6 26.7412 11.3382C26.7412 8.07638 26.4139 6.11275 26.1303 5.04366ZM24.8648 17.3055C24.8219 17.472 24.7402 17.6259 24.6265 17.7548C24.5127 17.8838 24.3701 17.984 24.2103 18.0473C20.7194 19.3891 14.8067 19.3673 14.7412 19.3673C14.6758 19.3673 8.76303 19.3891 5.27212 18.0473C5.11228 17.984 4.96967 17.8838 4.85592 17.7548C4.74217 17.6259 4.6605 17.472 4.61757 17.3055C4.35576 16.3018 4.0503 14.4582 4.0503 11.3382C4.0503 8.2182 4.35576 6.37457 4.61757 5.37093C4.6605 5.20445 4.74217 5.05047 4.85592 4.92156C4.96967 4.79264 5.11228 4.69243 5.27212 4.62911C8.76303 3.28729 14.6758 3.30911 14.7412 3.30911C14.8067 3.30911 20.7194 3.28729 24.2103 4.62911C24.3701 4.69243 24.5127 4.79264 24.6265 4.92156C24.7402 5.05047 24.8219 5.20445 24.8648 5.37093C25.1267 6.37457 25.4321 8.2182 25.4321 11.3382C25.4321 14.4582 25.1267 16.3018 24.8648 17.3055Z" fill="#231F20"/>
  </symbol>
  <symbol viewBox="0 0 29 22" id="icon-telegram">
    <path fill-rule="evenodd" clip-rule="evenodd" d="M24.202 3.15291C24.3805 3.30222 24.4667 3.5349 24.4284 3.76448L21.8023 19.5214C21.7656 19.7411 21.6201 19.9273 21.4157 20.0159C21.2112 20.1045 20.9759 20.0833 20.7905 19.9597L12.912 14.7074C12.7589 14.6054 12.6557 14.4437 12.6274 14.2619C12.5992 14.08 12.6486 13.8947 12.7635 13.751L15.3742 10.4877L11.0142 13.3944C10.8182 13.525 10.5672 13.5407 10.3564 13.4353L5.10414 10.8092C4.8689 10.6915 4.72656 10.4449 4.74241 10.1824C4.75826 9.91983 4.92925 9.6921 5.17694 9.60364L23.56 3.03826C23.7792 2.95998 24.0234 3.00359 24.202 3.15291ZM7.06747 10.3228L10.6029 12.0905L18.1643 7.0495C18.4337 6.86994 18.7937 6.91349 19.0124 7.1521C19.2312 7.3907 19.2434 7.75314 19.0412 8.00591L14.2362 14.0121L20.674 18.3039L22.9496 4.65058L7.06747 10.3228Z" fill="#231F20"/>
  </symbol>
  <symbol viewBox="0 0 27 34" id="icon-htmlacademy">
    <path d="M13.7587 0H13.6592L0.21875 1.39589V26.0235L13.6592 34L27 26.0235V1.39589L13.7587 0ZM25.1084 12.0645L13.6592 5.28446V5.18475H13.5596L13.4601 5.08504V5.18475L2.11037 12.0645V3.09091L13.5596 1.89443L25.1084 3.09091V12.0645ZM13.5596 6.78006L25.0089 13.4604L20.5287 16.0528L13.4601 11.8651V13.261L19.334 16.7507L18.438 17.2493L13.4601 14.2581V15.654L17.2433 17.9472L16.4468 18.4457L13.4601 16.651V18.0469L15.3517 19.1437L13.5596 20.2405L2.20992 13.5601L13.5596 6.78006ZM2.11037 15.0557L13.4601 21.8358V22.8328L5.59492 18.1466V19.5425L13.5596 24.3284V25.4252L5.59492 20.739V22.1349L13.5596 26.9208L21.6239 22.0352V16.8504L25.0089 14.8563V24.827L13.5596 31.7067L2.11037 24.9267V15.0557Z" />
  </symbol>
  <symbol viewBox="0 0 32 22" id="icon-video">
    <path d="M26 10L32 6V22L26 18V10ZM24 10V18C24 20.2 22.2 22 20 22H4C1.8 22 0 20.2 0 18V10C0 7.8 1.8 6 4 6H14C14 4.9 14.9 4 16 4V2H5C4.4 2 4 1.6 4 1C4 0.4 4.4 0 5 0H17C17.6 0 18 0.4 18 1V4C19.1 4 20 4.9 20 6C22.2 6 24 7.8 24 10ZM12 10H4V18H12V10ZM20 11C20 10.4 19.6 10 19 10H15C14.4 10 14 10.4 14 11C14 11.6 14.4 12 15 12H19C19.6 12 20 11.6 20 11Z" fill="#63D1BB"/>
  </symbol>
  <symbol viewBox="0 0 101 77" id="icon-play-video">
    <path d="M97.0001 18.1C97.0001 18.1 96.1001 11.1 93.2001 7.99997C89.6001 3.99997 85.5001 3.89995 83.7001 3.69995C70.4001 2.69995 50.4001 2.69995 50.4001 2.69995H50.3001C50.3001 2.69995 30.3001 2.69995 17.0001 3.69995C15.1001 3.89995 11.1001 3.99997 7.50011 7.99997C4.70011 11.1 3.7001 18.1 3.7001 18.1C3.7001 18.1 2.80011 26.3 2.80011 34.5V42.2C2.80011 50.4 3.7001 58.6 3.7001 58.6C3.7001 58.6 4.60011 65.6 7.50011 68.7C11.1001 72.7 15.9001 72.6 18.0001 73C25.6001 73.8 50.4001 74 50.4001 74C50.4001 74 70.4001 74 83.7001 73C85.6001 72.8 89.6001 72.7 93.2001 68.7C96.0001 65.6 97.0001 58.6 97.0001 58.6C97.0001 58.6 97.9001 50.4 97.9001 42.2V34.5C97.9001 26.3 97.0001 18.1 97.0001 18.1Z" fill="#63D1BB"/>
    <path d="M50.3001 76.8C49.3001 76.8 25.3001 76.5 17.7001 75.8H17.6001H17.5001C17.2001 75.7 16.8001 75.7 16.4001 75.6C13.9001 75.3 9.2001 74.7 5.6001 70.6C2.2001 67 1.2001 59.8 1.1001 59C1.1001 58.7 0.100098 50.5 0.100098 42.3V34.6C0.100098 26.3 1.00011 18.2 1.00011 17.9V17.8C1.10011 17 2.20011 9.89998 5.50011 6.19998C9.50011 1.79998 14.0001 1.30001 16.2001 1.10001C16.4001 1.10001 16.6001 1.1 16.7001 1H16.8001C30.1001 0 50.1001 0 50.3001 0H50.4001C50.6001 0 70.6001 0 83.9001 1H84.0001C84.2001 1 84.3001 1.00001 84.5001 1.10001C86.7001 1.30001 91.2001 1.79998 95.2001 6.19998C98.6001 9.79998 99.6001 17 99.7001 17.8C99.7001 18.1 100.7 26.3 100.7 34.6V42.3C100.7 50.6 99.8001 58.7 99.7001 59V59.1C99.6001 59.9 98.5001 67.1 95.2001 70.7C91.2001 75.1 86.7001 75.6 84.5001 75.8C84.3001 75.8 84.1001 75.8 84.0001 75.9H83.9001C70.6001 76.8 50.5001 76.8 50.3001 76.8ZM18.4001 70.4C25.9001 71.1 49.6001 71.4 50.4001 71.4C51.1001 71.4 70.5001 71.4 83.4001 70.4C83.6001 70.4 83.8001 70.4 84.0001 70.3C85.8001 70.1 88.6001 69.8 91.2001 67C93.0001 65 94.1001 60.1 94.3001 58.4C94.4001 57.9 95.2001 50 95.2001 42.3V34.6C95.2001 26.8 94.3001 19 94.2001 18.5C93.9001 16.1 92.8001 11.7 91.1001 10C88.5001 7.1 85.7001 6.89998 83.9001 6.69998C83.7001 6.69998 83.5001 6.70001 83.3001 6.60001C70.2001 5.60001 50.5001 5.60001 50.3001 5.60001H50.2001C50.0001 5.60001 30.2001 5.60001 17.2001 6.60001C17.0001 6.60001 16.8001 6.59998 16.6001 6.69998C14.8001 6.89998 12.0001 7.2 9.40012 10C7.60012 12 6.50011 16.9 6.30011 18.6C6.20011 19.2 5.4001 27 5.4001 34.7V42.4C5.4001 50.1 6.30011 58 6.30011 58.5C6.60011 60.9 7.70012 65.3 9.40012 67C11.7001 69.6 14.7001 70 16.9001 70.3C17.5001 70.2 17.9001 70.3 18.4001 70.4Z" fill="white"/>
    <path d="M38.4004 20.5V56.2L68.2004 38.4L38.4004 20.5Z" fill="white"/>
  </symbol>
  <symbol viewBox="0 0 25 24" id="icon-phone">
    <g>
      <path
        d="M17.4395 24C17.0363 24 16.7339 24 16.3306 24C11.3911 23.4074 7.7621 21.1358 5.14113 18.2717C2.52016 15.4075 0.403226 11.7532 0 6.7162C0 6.22237 0 5.82731 0 5.33349C0.100806 4.44461 0.504032 3.85202 1.10887 3.25943C1.71371 2.56808 2.72177 1.77796 3.62903 1.6792C4.33468 1.6792 5.44355 2.17302 5.84677 2.76561C6.25 3.25943 6.45161 4.34584 6.65323 5.13596C6.85484 6.02484 7.25806 7.11125 7.15726 7.90137C6.95565 9.08655 5.34274 9.58037 4.93952 10.4693C6.55242 14.1235 9.07258 16.889 12.5 18.6667C13.3065 18.1729 14.1129 16.7902 15.3226 16.7902C15.7258 16.7902 16.3306 16.9877 16.7339 17.0865C17.2379 17.1852 17.6411 17.3828 18.0444 17.5803C18.75 17.8766 20.0605 18.1729 20.4637 18.7655C20.8669 19.3581 21.1694 20.3457 21.0685 20.9383C20.7661 22.2222 18.6492 23.6049 17.4395 24Z" />
      <path
        d="M12.6008 1.48147C18.5484 1.48147 23.4879 6.22217 23.4879 12.1481H25C25 5.43205 19.4556 0 12.6008 0V1.48147Z" />
      <path
        d="M12.6008 9.18506V10.7653C13.4073 10.7653 14.0121 11.3579 14.0121 12.148H15.625C15.625 10.5678 14.3145 9.18506 12.6008 9.18506Z" />
      <path
        d="M12.6008 6.12356C15.9274 6.12356 18.75 8.79021 18.75 12.1482H20.3629C20.3629 8.00009 16.9355 4.64209 12.7016 4.64209V6.12356H12.6008Z" />
    </g>
  </symbol>
  <symbol viewBox="0 0 32 21" id="icon-email">
    <path
      d="M28 0H4C1.8 0 0 1.8 0 4V17C0 19.2 1.8 21 4 21H28C30.2 21 32 19.2 32 17V4C32 1.8 30.2 0 28 0ZM2 5.3L9 10.6L2 15.9V5.3ZM30 17C30 18.1 29.1 19 28 19H4C2.9 19 2 18.1 2 17L9.8 11.1L14.2 14.4C14.7 14.8 15.4 15 16 15C16.6 15 17.3 14.8 17.8 14.4L22.2 11.1L30 17ZM30 15.8L23 10.5L30 5.2V15.8ZM17.2 13.6C16.8 13.9 16.4 14 16 14C15.6 14 15.1 13.9 14.8 13.6L10.7 10.5L9.9 9.9L2 4C2 2.9 2.9 2 4 2H28C29.1 2 30 2.9 30 4L17.2 13.6Z" />
  </symbol>
  <symbol>
  </symbol>
</svg>
