<svg width="62" height="34" viewBox="0 0 62 34" fill="none" xmlns="http://www.w3.org/2000/svg">
<path d="M1093.8 0C1078.15 0 1078.15 14 1062.61 14C1047.07 14 1046.96 0 1031.41 0C1015.87 0 1015.76 14 1000.22 14C984.565 14 984.565 0 968.913 0C953.261 0 953.261 14 937.717 14C922.065 14 922.065 0 906.522 0C890.87 0 890.87 14 875.326 14C859.783 14 859.348 0 843.804 0C828.152 0 828.152 14 812.609 14C797.065 14 796.848 0 781.304 0C765.652 0 765.652 14 750.109 14C734.456 14 734.456 0 718.804 0C703.152 0 703.152 14 687.609 14C671.956 14 671.957 0 656.413 0C640.87 0 640.652 14 625 14C609.348 14 609.348 0 593.804 0C578.152 0 578.152 14 562.609 14C546.956 14 546.956 0 531.304 0C515.652 0 515.652 14 500.109 14C484.456 14 484.457 0 468.913 0C453.261 0 453.261 14 437.717 14C422.065 14 422.065 0 406.522 0C390.87 0 390.87 14 375.217 14C359.565 14 359.565 0 343.913 0C328.261 0 328.261 14 312.609 14C296.957 14 296.956 0 281.304 0C265.652 0 265.652 14 250 14C234.348 14 234.348 0 218.696 0C203.043 0 203.043 14 187.391 14C171.739 14 171.739 0 156.087 0C140.435 0 140.435 14 124.891 14C109.239 14 109.239 0 93.587 0C77.9348 0 77.9348 14 62.2826 14C46.6304 14 46.6304 0 30.9783 0C15.3261 0 15.3261 14 -0.326096 14C-15.9783 14 -15.9783 0 -31.6304 0C-46.8478 0 -46.8478 14 -62.5 14C-78.1522 14 -78.1522 0 -93.6957 0C-109.239 0 -109.348 14 -125 14V34H1125V14C1109.35 14 1109.35 0 1093.8 0Z" fill="white"/>
</svg>
