<svg width="38" height="24" viewBox="0 0 38 24" fill="none" xmlns="http://www.w3.org/2000/svg">
<path d="M711.784 0C702.142 0 702.142 9.88235 692.567 9.88235C682.992 9.88235 682.925 0 673.35 0C663.776 0 663.709 9.88235 654.134 9.88235C644.492 9.88235 644.492 0 634.85 0C625.209 0 625.209 9.88235 615.634 9.88235C605.992 9.88235 605.992 0 596.417 0C586.776 0 586.776 9.88235 577.201 9.88235C567.626 9.88235 567.358 0 557.783 0C548.142 0 548.142 9.88235 538.567 9.88235C528.992 9.88235 528.858 0 519.283 0C509.642 0 509.642 9.88235 500.067 9.88235C490.425 9.88235 490.425 0 480.783 0C471.142 0 471.142 9.88235 461.567 9.88235C451.925 9.88235 451.925 0 442.35 0C432.776 0 432.642 9.88235 423 9.88235C413.358 9.88235 413.358 0 403.783 0C394.142 0 394.142 9.88235 384.567 9.88235C374.925 9.88235 374.925 0 365.283 0C355.642 0 355.642 9.88235 346.067 9.88235C336.425 9.88235 336.425 0 326.85 0C317.209 0 317.209 9.88235 307.634 9.88235C297.992 9.88235 297.992 0 288.417 0C278.776 0 278.776 9.88235 269.134 9.88235C259.492 9.88235 259.492 0 249.85 0C240.209 0 240.209 9.88235 230.567 9.88235C220.925 9.88235 220.925 0 211.283 0C201.642 0 201.642 9.88235 192 9.88235C182.358 9.88235 182.358 0 172.717 0C163.075 0 163.075 9.88235 153.433 9.88235C143.791 9.88235 143.791 0 134.15 0C124.508 0 124.508 9.88235 114.933 9.88235C105.291 9.88235 105.291 0 95.6496 0C86.0078 0 86.0078 9.88235 76.3661 9.88235C66.7243 9.88235 66.7243 0 57.0826 0C47.4409 0 47.4409 9.88235 37.7991 9.88235C28.1574 9.88235 28.1574 0 18.5157 0C9.14174 0 9.14174 9.88235 -0.5 9.88235C-10.1417 9.88235 -10.1417 0 -19.7165 0C-29.2913 0 -29.3583 9.88235 -39 9.88235V24H731V9.88235C721.358 9.88235 721.358 0 711.784 0Z" fill="white"/>
</svg>
