<svg width="39" height="17" viewBox="0 0 39 17" fill="none" xmlns="http://www.w3.org/2000/svg">
<path d="M753 17C746.958 17 743.803 13.6 741.252 10.8652C738.97 8.42609 737.291 6.65217 733.734 6.65217C730.109 6.65217 728.497 8.42609 726.215 10.8652C723.664 13.6 720.509 17 714.467 17C708.425 17 705.27 13.6 702.719 10.8652C700.437 8.42609 698.759 6.65217 695.201 6.65217C691.643 6.65217 689.965 8.42609 687.682 10.8652C685.131 13.6 681.976 17 675.934 17C669.892 17 666.737 13.6 664.186 10.8652C661.904 8.42609 660.226 6.65217 656.668 6.65217C653.043 6.65217 651.432 8.42609 649.149 10.8652C646.598 13.6 643.443 17 637.401 17C631.36 17 628.205 13.6 625.654 10.8652C623.371 8.42609 621.693 6.65217 618.135 6.65217C614.51 6.65217 612.899 8.42609 610.616 10.8652C607.797 13.6 604.642 17 598.6 17C592.558 17 589.403 13.6 586.852 10.8652C584.57 8.42609 582.891 6.65217 579.334 6.65217C575.709 6.65217 574.097 8.42609 571.815 10.8652C569.264 13.6 566.109 17 560.067 17C554.025 17 550.87 13.6 548.319 10.8652C546.037 8.42609 544.359 6.65217 540.801 6.65217C537.176 6.65217 535.565 8.42609 533.282 10.8652C530.597 13.6 527.442 17 521.4 17C515.358 17 512.203 13.6 509.652 10.8652C507.37 8.42609 505.691 6.65217 502.134 6.65217C498.509 6.65217 496.897 8.42609 494.615 10.8652C492.064 13.6 488.909 17 482.867 17C476.825 17 473.67 13.6 471.119 10.8652C468.837 8.42609 467.159 6.65217 463.601 6.65217C460.043 6.65217 458.365 8.42609 456.082 10.8652C453.464 13.6 450.242 17 444.2 17C438.158 17 435.003 13.6 432.452 10.8652C430.17 8.42609 428.491 6.65217 424.934 6.65217C421.309 6.65217 419.697 8.42609 417.415 10.8652C414.864 13.6 411.709 17 405.667 17C399.625 17 396.47 13.6 393.919 10.8652C391.637 8.42609 389.959 6.65217 386.401 6.65217C382.776 6.65217 381.165 8.42609 378.882 10.8652C376.331 13.6 373.176 17 367.134 17C361.093 17 357.937 13.6 355.386 10.8652C353.104 8.42609 351.426 6.65217 347.868 6.65217C344.31 6.65217 342.632 8.42609 340.349 10.8652C337.798 13.6 334.643 17 328.601 17C322.56 17 319.405 13.6 316.854 10.8652C314.571 8.42609 312.893 6.65217 309.335 6.65217C305.71 6.65217 304.099 8.42609 301.816 10.8652C299.265 13.6 296.11 17 290.069 17C284.027 17 280.872 13.6 278.321 10.8652C276.038 8.42609 274.36 6.65217 270.802 6.65217C267.177 6.65217 265.566 8.42609 263.283 10.8652C260.733 13.6 257.577 17 251.536 17C245.494 17 242.339 13.6 239.788 10.8652C237.505 8.42609 235.827 6.65217 232.269 6.65217C228.644 6.65217 227.033 8.42609 224.751 10.8652C222.2 13.6 219.045 17 213.003 17C206.961 17 203.806 13.6 201.255 10.8652C198.973 8.42609 197.294 6.65217 193.736 6.65217C190.178 6.65217 188.5 8.42609 186.218 10.8652C183.667 13.6 180.512 17 174.47 17C168.428 17 165.273 13.6 162.722 10.8652C160.44 8.42609 158.761 6.65217 155.203 6.65217C151.578 6.65217 149.967 8.42609 147.685 10.8652C145.134 13.6 141.979 17 135.937 17C129.895 17 126.74 13.6 124.189 10.8652C121.907 8.42609 120.229 6.65217 116.671 6.65217C113.046 6.65217 111.434 8.42609 109.152 10.8652C106.601 13.6 103.446 17 97.4042 17C91.3624 17 88.2073 13.6 85.6563 10.8652C83.3739 8.42609 81.6956 6.65217 78.1377 6.65217C74.5127 6.65217 72.9016 8.42609 70.6191 10.8652C67.464 13.6 64.2417 17 58.2 17C52.1583 17 49.0031 13.6 46.4522 10.8652C44.1697 8.42609 42.4915 6.65217 38.9336 6.65217C35.3085 6.65217 33.6974 8.42609 31.415 10.8652C28.864 13.6 25.7089 17 19.6671 17C13.6254 17 10.4703 13.6 7.9193 10.8652C5.56974 8.42609 3.89148 6.65217 0.333565 6.65217C-3.29148 6.65217 -4.90261 8.42609 -7.18504 10.8652C-9.80313 13.6 -12.9583 17 -19 17V10.3478C-15.375 10.3478 -13.7638 8.57391 -11.4814 6.13478C-8.93044 3.4 -5.77531 0 0.333565 0C6.3753 0 9.53043 3.4 12.0814 6.13478C14.3638 8.57391 16.0421 10.3478 19.6 10.3478C23.225 10.3478 24.8362 8.57391 27.1186 6.13478C29.6696 3.4 32.8918 0 38.9336 0C44.9753 0 48.1304 3.4 50.6814 6.13478C52.9638 8.57391 54.6421 10.3478 58.2 10.3478C61.825 10.3478 63.4362 8.57391 65.7186 6.13478C68.2696 3.4 71.4247 0 77.4664 0C83.5082 0 86.6633 3.4 89.2143 6.13478C91.4967 8.57391 93.175 10.3478 96.7329 10.3478C100.358 10.3478 101.969 8.57391 104.251 6.13478C106.802 3.4 109.958 0 115.999 0C122.041 0 125.196 3.4 127.747 6.13478C130.03 8.57391 131.708 10.3478 135.266 10.3478C138.891 10.3478 140.502 8.57391 142.784 6.13478C145.335 3.4 148.49 0 154.532 0C160.574 0 163.729 3.4 166.28 6.13478C168.562 8.57391 170.241 10.3478 173.799 10.3478C177.424 10.3478 179.035 8.57391 181.317 6.13478C183.868 3.4 187.023 0 193.065 0C199.107 0 202.262 3.4 204.813 6.13478C207.095 8.57391 208.774 10.3478 212.331 10.3478C215.957 10.3478 217.568 8.57391 219.85 6.13478C222.401 3.4 225.556 0 231.598 0C237.64 0 240.795 3.4 243.346 6.13478C245.628 8.57391 247.306 10.3478 250.864 10.3478C254.422 10.3478 256.101 8.57391 258.383 6.13478C260.934 3.4 264.089 0 270.131 0C276.173 0 279.328 3.4 281.879 6.13478C284.161 8.57391 285.839 10.3478 289.397 10.3478C293.022 10.3478 294.633 8.57391 296.916 6.13478C299.467 3.4 302.622 0 308.664 0C314.705 0 317.861 3.4 320.411 6.13478C322.694 8.57391 324.372 10.3478 327.93 10.3478C331.555 10.3478 333.166 8.57391 335.449 6.13478C338 3.4 341.155 0 347.197 0C353.238 0 356.393 3.4 358.944 6.13478C361.227 8.57391 362.905 10.3478 366.463 10.3478C370.088 10.3478 371.699 8.57391 373.982 6.13478C376.533 3.4 379.688 0 385.729 0C391.771 0 394.926 3.4 397.477 6.13478C399.76 8.57391 401.438 10.3478 404.996 10.3478C408.621 10.3478 410.232 8.57391 412.514 6.13478C415.065 3.4 418.22 0 424.262 0C430.304 0 433.459 3.4 436.01 6.13478C438.293 8.57391 439.971 10.3478 443.529 10.3478C447.154 10.3478 448.765 8.57391 451.047 6.13478C453.598 3.4 456.753 0 462.795 0C468.837 0 471.992 3.4 474.543 6.13478C476.825 8.57391 478.504 10.3478 482.062 10.3478C485.687 10.3478 487.298 8.57391 489.58 6.13478C492.131 3.4 495.286 0 501.328 0C507.37 0 510.525 3.4 513.076 6.13478C515.358 8.57391 517.037 10.3478 520.594 10.3478C524.219 10.3478 525.831 8.57391 528.113 6.13478C531.47 3.4 534.625 0 540.734 0C546.775 0 549.93 3.4 552.481 6.13478C554.764 8.57391 556.442 10.3478 560 10.3478C563.558 10.3478 565.236 8.57391 567.519 6.13478C570.07 3.4 573.225 0 579.266 0C585.308 0 588.463 3.4 591.014 6.13478C593.297 8.57391 594.975 10.3478 598.533 10.3478C602.091 10.3478 603.769 8.57391 606.051 6.13478C608.67 3.4 611.825 0 617.934 0C624.042 0 627.13 3.4 629.681 6.13478C631.964 8.57391 633.642 10.3478 637.2 10.3478C640.758 10.3478 642.436 8.57391 644.719 6.13478C647.27 3.4 650.425 0 656.466 0C662.508 0 665.663 3.4 668.214 6.13478C670.497 8.57391 672.175 10.3478 675.733 10.3478C679.358 10.3478 680.969 8.57391 683.251 6.13478C685.802 3.4 688.958 0 694.999 0C701.041 0 704.196 3.4 706.747 6.13478C709.03 8.57391 710.708 10.3478 714.266 10.3478C717.824 10.3478 719.502 8.57391 721.784 6.13478C724.335 3.4 727.49 0 733.532 0C739.574 0 742.729 3.4 745.28 6.13478C747.562 8.57391 749.241 10.3478 752.799 10.3478V17H753Z" fill="#F1F1F1"/>
</svg>
